# xmcd CD database file
#
# Track frame offsets:
#	150
#	18888
#	40484
#	61790
#	81480
#	100993
#	119816
#	143716
#	162730
#	182998
#	200391
#	224189
#	247879
#	275808
#	310426
#
# Disc length: 4795 seconds
#
# Revision: 1
# Processed by: cddbd v1.5.2PL0 Copyright (c) Steve Scherf et al.
# Submitted via: CDex 1.70beta2
#
DISCID=ef12b90f
DTITLE=dream - 7th Anniversary Best
DYEAR=2007
DGENRE=Pop
TTITLE0=Movin' on
TTITLE1=Heart on Wave
TTITLE2=Breakin' out
TTITLE3=Private wars
TTITLE4=reality
TTITLE5=NIGHT OF FIRE
TTITLE6=My will
TTITLE7=Believe in you
TTITLE8=solve
TTITLE9=Our Time
TTITLE10=STAY ～now I'm here～
TTITLE11=Get Over
TTITLE12=Yourself
TTITLE13=SINCERELY ～ever dream～
TTITLE14=CCCD Data
EXTD=YEAR: 2007
EXTT0=
EXTT1=
EXTT2=
EXTT3=
EXTT4=
EXTT5=
EXTT6=
EXTT7=
EXTT8=
EXTT9=
EXTT10=
EXTT11=
EXTT12=
EXTT13=
EXTT14=
PLAYORDER=
